<?xml version="1.0" encoding="UTF-8" standalone="no"?>
<svg
   xmlns:dc="http://purl.org/dc/elements/1.1/"
   xmlns:cc="http://creativecommons.org/ns#"
   xmlns:rdf="http://www.w3.org/1999/02/22-rdf-syntax-ns#"
   xmlns:svg="http://www.w3.org/2000/svg"
   xmlns="http://www.w3.org/2000/svg"
   xmlns:sodipodi="http://sodipodi.sourceforge.net/DTD/sodipodi-0.dtd"
   xmlns:inkscape="http://www.inkscape.org/namespaces/inkscape"
   width="900"
   height="300"
   viewBox="0 0 3603.1359 1204"
   version="1.0"
   id="svg2"
   sodipodi:version="0.32"
   inkscape:version="0.91 r13725"
   sodipodi:docname="Cognizant_Logo.svg"
   inkscape:output_extension="org.inkscape.output.svg.inkscape">
  <metadata
     id="metadata64">
    <rdf:RDF>
      <cc:Work
         rdf:about="">
        <dc:format>image/svg+xml</dc:format>
        <dc:type
           rdf:resource="http://purl.org/dc/dcmitype/StillImage" />
        <dc:title></dc:title>
      </cc:Work>
    </rdf:RDF>
  </metadata>
  <defs
     id="defs62">
    <inkscape:perspective
       sodipodi:type="inkscape:persp3d"
       inkscape:vp_x="0 : 752.5 : 1"
       inkscape:vp_y="0 : 1000 : 0"
       inkscape:vp_z="1436.25 : 752.5 : 1"
       inkscape:persp3d-origin="718.125 : 501.66667 : 1"
       id="perspective66" />
  </defs>
  <sodipodi:namedview
     inkscape:window-height="706"
     inkscape:window-width="1366"
     inkscape:pageshadow="2"
     inkscape:pageopacity="0.0"
     guidetolerance="10.0"
     gridtolerance="10.0"
     objecttolerance="10.0"
     borderopacity="1.0"
     bordercolor="#666666"
     pagecolor="#ffffff"
     id="base"
     showgrid="false"
     inkscape:zoom="0.66449955"
     inkscape:cx="320.97634"
     inkscape:cy="274.00775"
     inkscape:window-x="-8"
     inkscape:window-y="-8"
     inkscape:current-layer="#110e0eff"
     inkscape:window-maximized="1" />
  <g
     id="#ffffffff" />
  <g
     id="#110e0eff">
    <path
       d="m 547.49,1.75 c 11.12,-1.04 22.29,-1.16 33.46,-0.98 9.36,-0.59 18.68,0.49 28,1.11 67.57,5.33 133.57,29.08 189.04,68.03 55.78,38.85 101.02,92.72 129.46,154.47 32.75,70.32 43.1,150.73 29.84,227.12 -8.77,51.75 -28.52,101.56 -57.32,145.43 -27.06,41.26 -62.08,77.28 -102.62,105.42 -49.59,34.61 -107.5,57.24 -167.44,65.28 -76.8,10.71 -156.79,-2.45 -225.96,-37.54 C 337.9,696.93 281.83,644.26 244.56,580.44 206.94,516.71 188.71,441.86 192.24,367.97 c 1.78,-36.98 8.68,-73.75 20.95,-108.7 C 237.49,188.96 282.91,126.21 341.85,80.86 400.7,35.16 473.16,7.23 547.49,1.75 m -18.47,5.19 c -3.59,1.68 -7.7,1.26 -11.42,2.51 -5.47,1.87 -11.21,2.75 -16.72,4.48 -5.08,0.98 -9.36,4.28 -14.59,4.71 0.37,0.17 1.12,0.5 1.49,0.67 -5.83,0 -9.95,4.56 -15.5,5.39 0.41,0.15 1.24,0.45 1.65,0.59 -1.9,0.43 -3.79,0.91 -5.68,1.37 0.47,0.23 0.95,0.45 1.44,0.67 -5.12,1.17 -9.2,4.65 -13.79,6.98 -7.06,4.53 -13.83,9.49 -20.35,14.76 -0.06,0.56 -0.17,1.69 -0.23,2.25 -0.59,0.03 -1.77,0.09 -2.36,0.12 -4.17,4.82 -9.26,8.73 -13.35,13.62 -0.08,0.48 -0.24,1.44 -0.32,1.92 -3.99,2.02 -6,6.37 -8.34,9.97 -5.12,5.67 -8.41,12.69 -11.96,19.39 -2.91,5.32 -4.54,11.17 -6.87,16.74 -2.45,6.1 -4.23,12.49 -4.93,19.04 -0.25,-1.3 -0.49,-2.6 -0.73,-3.89 0.13,2.94 0.09,5.93 -0.82,8.77 -1.54,4.73 -1.22,9.77 -2,14.63 5.38,1.59 11.04,0.09 16.49,1.17 -5.42,-0.38 -10.85,-0.06 -16.27,-0.46 l 0.01,-0.18 c -21.14,-0.34 -42.42,-0.01 -63.32,3.53 -23.13,3.97 -47.03,11.02 -64.68,27.24 -12.7,11.37 -20.01,28.12 -20.37,45.1 -0.76,24.65 8.63,48.2 19.94,69.64 12.29,22.52 27.4,43.39 43.72,63.15 25.31,30.4 53.19,58.71 83.44,84.22 0.15,52.32 -0.01,104.63 0.08,156.94 0,2.08 0.28,4.14 0.62,6.2 0.2,10.61 0.48,21.42 3.57,31.65 1.65,7.42 3.83,14.69 5.83,22.01 0.2,-0.55 0.4,-1.09 0.62,-1.61 0.84,5.18 2.7,10.26 5.74,14.58 0.55,1.44 1.18,2.86 2,4.19 1.78,5.12 5.11,9.41 7.89,14 10.82,15.56 24.65,28.84 39.84,40.1 4.24,2.23 8.26,4.88 12.06,7.81 7.47,3.61 14.93,7.27 22.68,10.28 3.15,1.81 6.56,3.08 10.2,3.46 -0.49,0.23 -0.97,0.47 -1.44,0.73 7.47,0.93 14.25,4.49 21.6,5.97 10.85,2.82 22.01,3.93 33.02,5.92 18.97,1.43 38.05,1.59 57.03,0.19 5.33,-0.84 10.68,-1.52 16.06,-1.92 14.7,-2.45 29.04,-6.63 43.34,-10.8 7.5,-3.48 15.43,-6.1 22.55,-10.36 6.12,-2.41 11.54,-6.17 17.3,-9.29 2.54,-2.13 5.16,-4.16 7.9,-6.02 4.35,-3.05 8.04,-6.9 12.18,-10.2 9.72,-7.52 16.69,-17.79 24.08,-27.44 11.12,-16.38 18.44,-35.17 22.44,-54.51 0.9,-5.62 2.38,-11.17 2.37,-16.89 0.51,-4.64 0.35,-9.33 1.16,-13.93 13.57,0.91 27.21,0.02 40.78,-0.73 18.22,-1.55 36.5,-4.02 53.99,-9.54 13.89,-4.32 27.48,-10.6 38.32,-20.47 8.86,-7.86 15.13,-18.59 17.21,-30.28 2.95,-17.02 -1.16,-34.37 -7.56,-50.13 -10.08,-24.59 -25.43,-46.56 -41.65,-67.44 -3.45,-0.57 -6.96,-0.16 -10.43,-0.24 -57.64,0.1 -115.29,0.09 -172.94,0.25 9.18,12.98 19.17,26.64 20.91,42.93 l -0.04,0.85 c -4.59,-1 -9.27,-0.34 -13.88,-0.04 -14.68,-0.15 -29.36,-0.11 -44.04,0.04 -4.33,-0.28 -8.67,-0.58 -12.99,-0.08 -11.11,0.12 -22.21,0.01 -33.31,0.08 -21.25,-11.44 -40.71,-25.84 -59.32,-41.13 0.25,-31.06 0.03,-62.13 0.11,-93.19 -0.16,-15.67 0.33,-31.36 -0.26,-47.02 l 0.31,0.36 c 16.97,10.14 32.67,22.42 46.45,36.6 1.46,1.85 4,1.29 6.05,1.43 59.73,-0.35 119.47,0.09 179.19,-0.52 -22.92,-22.64 -47.53,-43.61 -73.79,-62.28 4.02,-1.52 8.39,-0.77 12.59,-0.89 18.15,-0.07 36.3,0.15 54.45,-0.11 0.15,-33.86 0.2,-67.72 -0.03,-101.58 -1.54,-10.02 -0.95,-20.46 -4.51,-30.09 -0.5,-7.91 -4.62,-14.94 -5.55,-22.76 -0.16,0.42 -0.48,1.24 -0.64,1.66 -1.51,-7.06 -5.14,-13.41 -8.42,-19.75 -1.92,-4.75 -5.53,-8.54 -7.36,-13.32 -3.49,-3.76 -6.58,-7.86 -9.77,-11.86 -10.84,-12.89 -24.22,-23.34 -38.05,-32.81 -5.67,-2.73 -11.31,-5.51 -16.77,-8.65 -9.44,-4.62 -19.3,-8.36 -29.38,-11.3 -6.06,-1.84 -12.31,-2.98 -18.26,-5.17 -10,-1.04 -19.67,-4.43 -29.76,-4.48 -18.31,-1.4 -36.75,-1.32 -55.07,-0.02 -6.92,1.11 -13.91,1.77 -20.88,2.52 z"
       id="path6"
       style="opacity:1;fill:#000000;fill-opacity:1"
       inkscape:connector-curvature="0"
       inkscape:export-xdpi="18.036776"
       inkscape:export-ydpi="18.036776" />
    <path
       d="m 566.3,128.22 c 6.55,-2.49 13.96,-2.95 20.71,-1.02 13.31,5.37 19.46,20.26 20.44,33.72 0.36,15.3 -0.1,30.61 0.25,45.92 -5.58,-1.58 -10.62,-4.46 -15.95,-6.65 -14.25,-6.07 -28.6,-11.99 -43.36,-16.72 0.35,-9.16 -0.43,-18.37 0.55,-27.5 1.9,-5.81 2.57,-12.17 6.08,-17.33 1.92,-3.21 4.22,-6.34 7.78,-7.86 1.12,-0.89 2.13,-2.02 3.5,-2.56 z"
       id="path8"
       style="opacity:1;fill:#110e0e"
       inkscape:connector-curvature="0"
       inkscape:export-xdpi="18.036776"
       inkscape:export-ydpi="18.036776" />
    <path
       d="m 548.43,557.03 c -0.06,-1.94 0.16,-3.89 1.12,-5.6 18.88,8.97 38.4,16.57 58.14,23.47 -0.21,7.39 -0.09,14.78 -0.11,22.18 -0.11,8.9 0.67,18.11 -2.59,26.6 -2.22,8.01 -7.21,15.56 -15,19.02 -7.85,4.77 -17.48,3.34 -25.75,0.59 0.51,-0.22 1.03,-0.43 1.56,-0.63 -1.61,-0.49 -3.2,-0.97 -4.78,-1.44 -2.84,-3.37 -5.87,-6.69 -7.68,-10.75 -3.42,-7.32 -4.19,-15.51 -4.83,-23.46 -0.09,-16.66 0.08,-33.32 -0.08,-49.98 z"
       id="path10"
       style="opacity:1;fill:#110e0e"
       inkscape:connector-curvature="0"
       inkscape:export-xdpi="18.036776"
       inkscape:export-ydpi="18.036776" />
    <path
       d="m 908.47,603.22 c 8.1,-0.08 16.21,-0.04 24.32,-0.03 -0.04,1.15 -0.07,2.31 -0.09,3.47 -3.36,-0.03 -6.73,-0.01 -10.08,-0.02 0.05,8.75 -0.03,17.5 0.04,26.25 -1.36,0.01 -2.7,0.04 -4.04,0.06 0,-8.78 0.08,-17.56 -0.05,-26.34 -3.35,0.03 -6.71,0.04 -10.05,0.01 -0.02,-1.14 -0.04,-2.27 -0.05,-3.4 z"
       id="path12"
       style="opacity:1;fill:#110e0e"
       inkscape:connector-curvature="0"
       inkscape:export-xdpi="18.036776"
       inkscape:export-ydpi="18.036776" />
    <path
       d="m 936.41,603.18 c 1.94,0 3.89,0.01 5.86,0.05 2.76,8.39 5.51,16.79 8.52,25.1 2.95,-8.33 5.71,-16.72 8.49,-25.11 1.92,-0.03 3.86,-0.05 5.8,-0.06 0.05,9.9 -0.01,19.81 0.03,29.72 -1.32,0.02 -2.63,0.04 -3.93,0.07 -0.05,-7.91 0.26,-15.82 -0.12,-23.71 -3.44,7.62 -5.49,15.81 -8.29,23.68 -1.39,-0.03 -2.76,-0.06 -4.12,-0.09 -2.72,-8.07 -5.11,-16.29 -8.32,-24.19 -0.08,8.1 0.02,16.21 0.01,24.31 -1.33,-0.03 -2.65,-0.06 -3.95,-0.09 0.08,-9.9 0.05,-19.79 0.02,-29.68 z"
       id="path14"
       style="opacity:1;fill:#110e0e"
       inkscape:connector-curvature="0"
       inkscape:export-xdpi="18.036776"
       inkscape:export-ydpi="18.036776" />
    <path
       d="m 1252.4521,166.75452 c 26.1561,-15.97848 57.9914,-18.42736 87.9164,-17.40265 27.0939,1.19838 56.4457,9.06605 73.8831,31.31434 19.0873,24.00246 20.8067,56.37625 19.5041,85.76275 -17.42,0.4863 -34.8574,0.035 -52.2774,0.2432 -0.3821,-17.0206 0.1563,-34.97902 -7.2945,-50.71435 -6.2525,-13.40803 -21.1368,-19.39996 -34.7185,-22.28303 -22.5088,-4.48092 -47.8486,0.46894 -64.817,16.58636 -8.1108,7.36399 -12.2965,17.95842 -15.0927,28.3097 -3.8384,16.15212 -4.7067,32.84272 -5.2625,49.39432 -0.6426,40.502 -0.1737,81.0387 -0.2953,121.558 0.33,26.2603 1.2505,53.4758 11.9144,77.9125 6.1483,14.4675 18.7574,26.2255 34.3016,29.6991 16.2564,3.2999 33.989,4.2204 49.516,-2.6573 12.3833,-5.3667 22.1267,-15.7874 27.8407,-27.8928 7.4856,-15.4575 9.3613,-32.8601 9.8476,-49.7938 17.4374,-0.035 34.8748,-0.052 52.3122,0.017 0.191,26.8161 -2.9005,54.7437 -16.2216,78.5204 -10.6987,19.5736 -29.4908,34.2147 -50.7317,40.7625 -18.2884,5.9919 -37.7405,6.3392 -56.7931,5.7314 -22.2309,-0.2953 -45.4518,-4.0468 -64.1744,-16.8295 -20.1468,-13.026 -32.3738,-35.1527 -39.2341,-57.592 -8.1456,-27.4931 -10.9245,-56.4281 -9.6913,-85.0157 0.017,-35.8647 0.2605,-71.7295 -0.07,-107.5768 -1.2331,-22.2831 1.3721,-44.7224 6.9645,-66.31071 6.4088,-24.66244 20.4421,-48.3349 42.673,-61.74293 z"
       id="path16"
       style="opacity:1;fill:#000000;fill-opacity:1"
       inkscape:connector-curvature="0"
       inkscape:export-xdpi="18.036776"
       inkscape:export-ydpi="18.036776" />
    <path
       d="m 2261.5452,205.62391 c 0.069,-16.15216 -0.139,-32.30432 0.1215,-48.43911 16.8643,0.26052 33.7285,-0.15631 50.5928,0.22578 -0.139,16.08269 -0.017,32.14801 -0.052,48.23069 -16.899,0.0521 -33.7806,0.10421 -50.6622,-0.0174 z"
       id="path18"
       style="opacity:1;fill:#000000;fill-opacity:1"
       inkscape:connector-curvature="0"
       inkscape:export-xdpi="18.036776"
       inkscape:export-ydpi="18.036776" />
    <path
       d="m 3089.5256,223.18286 c 15.058,-6.70401 30.0118,-13.63381 45.1045,-20.28572 0.052,24.50613 0.017,48.99492 0.017,73.50102 20.112,0.035 40.2414,0.035 60.3708,-0.017 0.139,11.3934 0.035,22.8041 0.07,34.1974 -20.1468,0 -40.2935,0.035 -60.4403,0 0.035,57.8699 -0.052,115.7572 0.035,173.6444 -0.017,10.716 2.0668,23.3251 12.0534,29.4039 14.6411,9.0313 32.5995,6.4782 48.8038,4.4462 -0.2258,11.5844 0.5384,23.1862 -0.1911,34.7706 -21.3625,2.1536 -42.9855,6.6345 -64.3828,2.5704 -13.6512,-2.2405 -27.6324,-8.6145 -34.9269,-20.911 -6.7214,-10.907 -6.7561,-24.1414 -6.5477,-36.5073 -0.017,-62.4724 0.035,-124.9448 -0.035,-187.4172 -15.1796,0.035 -30.3591,-0.017 -45.5387,0 0.052,-11.4107 -0.2952,-22.8214 0.2258,-34.2147 15.0927,0.1042 30.2028,0.035 45.3302,0.052 0.07,-17.7501 -0.035,-35.4827 0.052,-53.2327 z"
       id="path20"
       style="opacity:1;fill:#000000;fill-opacity:1"
       inkscape:connector-curvature="0"
       inkscape:export-xdpi="18.036776"
       inkscape:export-ydpi="18.036776" />
    <path
       d="m 2111.5732,271.96936 c 21.4494,-2.1537 45.0524,-1.5805 63.5145,10.9418 15.6311,10.6118 22.8562,29.4212 25.5829,47.4317 2.8657,19.8342 1.9973,39.981 2.171,59.9714 0.017,54.4311 -0.052,108.8621 0.035,163.2931 -15.058,0.4516 -30.1334,0.087 -45.1914,0.1911 -0.035,-51.0443 -0.017,-102.0886 -0.017,-153.1155 -0.2257,-16.1869 0.5037,-32.3912 -0.4863,-48.526 -0.9726,-13.8422 -5.9919,-28.5528 -18.0105,-36.5768 -13.2517,-8.4582 -30.0812,-9.0139 -45.1218,-6.1309 -14.0507,2.7094 -26.0693,12.6265 -32.148,25.4788 -9.5697,19.7994 -9.535,42.4298 -9.6045,63.966 0.035,51.6348 -0.017,103.2696 0.035,154.9218 -15.058,-0.017 -30.1159,0.017 -45.1566,-0.017 -0.07,-51.0096 -0.017,-102.0191 -0.035,-153.0287 -0.1563,-41.4398 0.9379,-82.9491 -2.7094,-124.2674 15.8917,-0.2258 31.8007,0.035 47.7097,-0.1389 0.4689,12.1749 -0.191,24.3845 0.3821,36.5768 5.4188,-4.2725 7.5724,-11.2023 12.2791,-16.1348 11.1849,-14.5196 28.6744,-23.1688 46.7718,-24.8361 z"
       id="path22"
       style="opacity:1;fill:#000000;fill-opacity:1"
       inkscape:connector-curvature="0"
       inkscape:export-xdpi="18.036776"
       inkscape:export-ydpi="18.036776" />
    <path
       d="m 2897.6971,283.77956 c 16.1695,-11.5497 36.9241,-13.3039 56.2025,-12.6265 17.5069,0.5731 36.0732,5.5056 48.4044,18.6705 12.6091,13.4254 16.9858,32.2175 18.7052,50.0196 1.5284,20.8588 0.8163,41.7872 0.9726,62.6808 -0.017,50.4364 0.052,100.8554 -0.035,151.2745 -15.0406,0 -30.0812,0.052 -45.1045,-0.035 -0.052,-63.7577 0,-127.5153 -0.035,-191.2729 -0.2084,-13.4601 -1.6326,-27.9449 -10.1081,-38.9909 -7.0688,-9.4655 -18.8268,-14.1722 -30.307,-15.1796 -15.0233,-1.5631 -31.4707,0.7816 -43.333,10.855 -11.5844,9.9344 -16.899,25.0966 -19.3826,39.7377 -3.1783,20.72 -1.9625,41.7525 -2.2057,62.6461 -0.069,44.0971 0.1563,88.1943 -0.1042,132.2914 -15.0059,-0.1042 -30.0291,0 -45.0176,-0.035 -0.087,-47.5534 -0.017,-95.0894 -0.035,-142.6427 -0.191,-44.9482 1.0074,-89.9658 -2.6052,-134.8271 15.9264,0.2084 31.8528,-0.1216 47.7965,0.191 0.2953,11.8797 -0.712,23.8462 0.3995,35.6564 l 1.4415,-0.139 c 6.8083,-10.4034 13.8249,-21.1888 24.3499,-28.2749 z"
       id="path24"
       style="opacity:1;fill:#000000;fill-opacity:1"
       inkscape:connector-curvature="0"
       inkscape:export-xdpi="18.036776"
       inkscape:export-ydpi="18.036776" />
    <path
       d="m 1560.0031,273.41086 c 24.8882,-3.9078 51.1137,-3.5257 75.1336,4.7241 19.6083,6.5998 35.6216,21.8488 44.1318,40.5888 11.0634,23.9677 13.4428,50.8011 14.3112,76.853 0.851,33.7632 0.8163,68.2559 -8.9619,100.8902 -6.0266,20.2336 -17.7152,39.8941 -36.542,50.5406 -21.0847,11.9144 -46.1466,12.7654 -69.7669,12.0707 -21.6926,-0.7642 -44.7224,-5.5403 -61.1872,-20.6852 -18.5316,-16.9337 -26.3298,-42.0998 -30.2896,-66.1543 -4.7588,-29.3865 -4.1336,-59.2941 -2.9178,-88.9411 1.9278,-27.7018 5.9398,-57.1404 23.1166,-79.9619 12.4355,-16.9511 32.5475,-26.7292 52.9722,-29.9249 m 10.4207,36.4553 c -12.3486,2.8483 -22.8388,11.5496 -28.4312,22.8561 -9.7261,19.3305 -11.0634,41.5267 -11.6018,62.785 0.1737,24.1067 0.1216,48.3523 3.9772,72.2158 2.7963,15.8048 7.0688,32.8948 19.5389,43.9929 12.8697,10.9592 31.106,11.8102 47.1192,9.7087 13.5296,-1.7021 25.8608,-10.2123 31.9743,-22.4393 10.2297,-20.06 11.5323,-43.1419 12.9217,-65.1992 0.6427,-28.4834 2.5531,-57.5746 -4.863,-85.398 -3.7688,-14.1722 -11.5323,-28.5529 -25.2529,-35.1527 -14.0507,-6.5303 -30.4633,-6.565 -45.3824,-3.3693 z"
       id="path26"
       style="opacity:1;fill:#000000;fill-opacity:1"
       inkscape:connector-curvature="0"
       inkscape:export-xdpi="18.036776"
       inkscape:export-ydpi="18.036776" />
    <path
       d="m 1786.5328,283.98796 c 18.5489,-13.1128 43.0029,-15.7875 64.7128,-10.3166 13.6338,3.4562 26.1561,11.4455 34.6316,22.7346 3.6473,4.6025 6.183,9.9518 9.6392,14.6933 0.139,-11.5323 0.052,-23.0646 0.052,-34.5795 15.0232,-0.2085 30.0639,-0.1042 45.1045,-0.07 0.1563,101.0812 0.052,202.1451 0.052,303.2264 0.087,17.0379 -2.4663,35.0311 -12.7133,49.1859 -9.205,12.9217 -23.9851,20.5983 -39.0431,24.5409 -15.7874,3.9772 -32.148,5.5056 -48.387,4.8977 -22.4394,0.9553 -45.9902,-4.3246 -63.8966,-18.3926 -14.1027,-10.9592 -22.1267,-28.605 -22.4393,-46.3376 0.2779,-2.8831 -1.0073,-6.6345 0.9552,-8.9445 16.5343,-0.4168 33.1033,0.052 49.6549,-0.2258 0.8163,10.2819 3.5083,21.0847 11.1328,28.5182 10.3339,10.5249 26.2777,12.8348 40.3457,11.0112 13.5122,-1.511 26.7118,-8.9618 33.1727,-21.2062 7.2772,-12.8175 5.9572,-28.0666 6.0788,-42.2214 -0.2432,-14.1201 0.4863,-28.2576 -0.4169,-42.343 -7.885,12.6091 -18.7573,23.6899 -32.7385,29.3692 -20.251,8.9097 -43.9234,7.694 -64.4002,0.1736 -18.7573,-7.1382 -32.9469,-23.1861 -40.502,-41.4919 -10.577,-25.0098 -13.3038,-52.5206 -14.1548,-79.4235 -1.1463,-30.7759 -0.2432,-62.1771 8.9097,-91.8241 6.1483,-19.7647 16.9511,-38.9389 34.2495,-50.9748 m 44.3924,25.7739 c -14.4501,2.8831 -25.5829,14.4502 -31.0364,27.7366 -8.5971,20.4594 -9.2571,43.1245 -9.6219,65.0081 0.069,26.3124 0.5906,53.1805 8.4061,78.5377 4.342,13.9985 13.2344,28.2402 27.9797,32.7559 17.75,5.4014 39.8768,2.7267 52.3817,-12.1228 12.2617,-14.4154 15.0927,-33.9543 16.7426,-52.1385 1.3547,-21.432 1.0074,-42.9335 0.6253,-64.3655 -1.1637,-20.8415 -2.7094,-43.5587 -16.0827,-60.6487 -11.4628,-14.6064 -31.9917,-18.4621 -49.3944,-14.7628 z"
       id="path28"
       style="opacity:1;fill:#000000;fill-opacity:1"
       inkscape:connector-curvature="0"
       inkscape:export-xdpi="18.036776"
       inkscape:export-ydpi="18.036776" />
    <path
       d="m 2589.3471,296.63176 c 11.2371,-13.3733 28.2229,-20.3205 45.0698,-23.2556 18.3926,-3.0568 37.2715,-3.1957 55.7162,-0.5558 18.41,2.7615 37.2021,10.2818 48.9602,25.305 12.0186,15.1796 15.5964,35.118 15.8048,54.0316 0.1737,45.7645 -0.052,91.5289 0.1042,137.2934 0.1042,21.5709 2.3273,43.055 5.4188,64.3655 -16.4995,-0.035 -32.9991,0.035 -49.4812,-0.035 -0.2258,-13.5991 0.33,-27.2155 -0.3474,-40.7798 -6.0093,11.567 -12.3833,23.4119 -22.7346,31.7311 -14.259,11.8971 -33.6937,14.9364 -51.7216,14.4501 -18.0453,-0.3647 -37.0805,-5.3493 -50.0717,-18.5663 -13.8596,-13.929 -19.0873,-33.9021 -20.9457,-52.92 -1.4936,-17.5763 -1.5978,-35.8474 4.5851,-52.6074 4.863,-13.4428 14.2243,-25.1314 26.1214,-33.0511 15.9437,-10.7334 35.0658,-15.4575 53.8926,-18.0279 19.9384,-2.7963 40.1199,-2.0494 60.1798,-2.5878 0.087,-18.3927 1.3547,-37.7405 -6.3566,-54.9521 -5.1757,-11.4802 -16.8122,-18.8789 -29.0739,-20.4768 -15.1448,-2.171 -32.7038,-0.3647 -43.8366,11.2544 -9.5177,9.7955 -11.6018,24.1935 -11.0634,37.3237 -16.2564,-0.1563 -32.4954,0 -48.7344,-0.07 0.8337,-20.3552 4.8283,-41.9956 18.5142,-57.8699 m 53.7016,125.5005 c -13.2343,4.1336 -25.3224,13.5991 -29.9596,27.0071 -5.332,15.4922 -4.8283,33.0338 1.2678,48.2481 4.7067,12.036 15.5443,21.6752 28.3966,24.0198 13.599,2.31 28.5528,0.2953 39.8246,-8.0934 10.8028,-7.7982 17.3158,-20.0773 21.2409,-32.5301 6.3741,-20.9284 6.8256,-43.0551 5.9746,-64.7302 -22.3004,0.6773 -45.226,-0.8337 -66.7449,6.0787 z"
       id="path30"
       style="opacity:1;fill:#000000;fill-opacity:1"
       inkscape:connector-curvature="0"
       inkscape:export-xdpi="18.036776"
       inkscape:export-ydpi="18.036776" />
    <path
       d="m 2264.4109,276.38076 c 14.9711,0.052 29.9596,0.035 44.9308,0.017 0.3994,92.4668 0.1215,184.9335 0.087,277.4003 -15.0406,0.017 -30.0812,0.017 -45.1218,0 0.052,-92.4841 -0.1564,-184.9509 0.1042,-277.4177 z"
       id="path32"
       style="opacity:1;fill:#000000;fill-opacity:1"
       inkscape:connector-curvature="0"
       inkscape:export-xdpi="18.036776"
       inkscape:export-ydpi="18.036776" />
    <path
       d="m 2356.6692,276.39816 c 55.1431,0.1042 110.2689,-0.139 165.3946,0.1216 -0.1389,13.0433 0.087,26.0866 -0.069,39.1299 0.191,2.4836 -1.6152,4.4288 -2.6747,6.5129 -39.9462,64.8866 -79.8229,129.8078 -119.6996,194.7291 42.065,0.087 84.1475,0 126.23,0.052 0.052,12.2965 0.035,24.5756 0,36.8721 -58.4431,-0.017 -116.8687,0 -175.3118,0 -0.035,-12.2444 0.017,-24.5062 -0.052,-36.7332 0.069,-2.6573 -0.2778,-5.4882 1.3721,-7.7113 39.8767,-65.3729 80.1877,-130.4678 119.9254,-195.9275 -38.383,-0.2605 -76.7661,-0.069 -115.1319,-0.1042 -0.1389,-12.3138 -0.1736,-24.6277 0.017,-36.9415 z"
       id="path34"
       style="opacity:1;fill:#000000;fill-opacity:1"
       inkscape:connector-curvature="0"
       inkscape:export-xdpi="18.036776"
       inkscape:export-ydpi="18.036776" />
  </g>
  <g
     id="#007cc2ff"
     inkscape:export-xdpi="18.036776"
     inkscape:export-ydpi="18.036776">
    <path
       d="m 529.02,6.94 c 6.97,-0.75 13.96,-1.41 20.88,-2.52 18.32,-1.3 36.76,-1.38 55.07,0.02 10.09,0.05 19.76,3.44 29.76,4.48 5.95,2.19 12.2,3.33 18.26,5.17 10.08,2.94 19.94,6.68 29.38,11.3 5.46,3.14 11.1,5.92 16.77,8.65 13.83,9.47 27.21,19.92 38.05,32.81 3.19,4 6.28,8.1 9.77,11.86 1.83,4.78 5.44,8.57 7.36,13.32 3.28,6.34 6.91,12.69 8.42,19.75 0.16,-0.42 0.48,-1.24 0.64,-1.66 0.93,7.82 5.05,14.85 5.55,22.76 3.56,9.63 2.97,20.07 4.51,30.09 0.23,33.86 0.18,67.72 0.03,101.58 -18.15,0.26 -36.3,0.04 -54.45,0.11 -4.2,0.12 -8.57,-0.63 -12.59,0.89 -0.71,-0.46 -1.41,-0.92 -2.1,-1.37 -17.15,-12.31 -34.98,-23.62 -53.27,-34.15 -14.2,-7.84 -28.39,-15.82 -43.34,-22.16 -0.01,-0.26 -0.02,-0.77 -0.02,-1.03 -0.35,-15.31 0.11,-30.62 -0.25,-45.92 -0.98,-13.46 -7.13,-28.35 -20.44,-33.72 -6.75,-1.93 -14.16,-1.47 -20.71,1.02 -1.37,0.54 -2.38,1.67 -3.5,2.56 -3.56,1.52 -5.86,4.65 -7.78,7.86 -3.51,5.16 -4.18,11.52 -6.08,17.33 -1.75,8.97 0.06,18.19 -0.93,27.26 -8.79,-2.43 -17.3,-5.77 -26.1,-8.15 -34.25,-10.02 -69.39,-17.19 -104.93,-20.56 -5.63,-0.47 -11.28,-0.74 -16.85,-1.72 -5.45,-1.08 -11.11,0.42 -16.49,-1.17 0.78,-4.86 0.46,-9.9 2,-14.63 0.91,-2.84 0.95,-5.83 0.82,-8.77 0.24,1.29 0.48,2.59 0.73,3.89 0.7,-6.55 2.48,-12.94 4.93,-19.04 2.33,-5.57 3.96,-11.42 6.87,-16.74 3.55,-6.7 6.84,-13.72 11.96,-19.39 2.34,-3.6 4.35,-7.95 8.34,-9.97 0.08,-0.48 0.24,-1.44 0.32,-1.92 4.09,-4.89 9.18,-8.8 13.35,-13.62 0.59,-0.03 1.77,-0.09 2.36,-0.12 0.06,-0.56 0.17,-1.69 0.23,-2.25 6.52,-5.27 13.29,-10.23 20.35,-14.76 4.59,-2.33 8.67,-5.81 13.79,-6.98 -0.49,-0.22 -0.97,-0.44 -1.44,-0.67 1.89,-0.46 3.78,-0.94 5.68,-1.37 -0.41,-0.14 -1.24,-0.44 -1.65,-0.59 5.55,-0.83 9.67,-5.39 15.5,-5.39 -0.37,-0.17 -1.12,-0.5 -1.49,-0.67 5.23,-0.43 9.51,-3.73 14.59,-4.71 5.51,-1.73 11.25,-2.61 16.72,-4.48 3.72,-1.25 7.83,-0.83 11.42,-2.51 z"
       id="path37"
       style="opacity:1;fill:#007cc2"
       inkscape:connector-curvature="0" />
    <path
       d="m 456.62,268.72 c 10.58,-2.72 21.66,-2.14 32.42,-0.99 21.16,2.71 40.79,11.82 59.18,22.23 0.59,15.66 0.1,31.35 0.26,47.02 -0.08,31.06 0.14,62.13 -0.11,93.19 -29.1,-24.7 -54.99,-53.02 -78.56,-82.99 -10.3,-13.84 -20.61,-28.05 -26.64,-44.36 -2.31,-7.27 -4.48,-15.52 -1.22,-22.85 2.55,-6.01 8.57,-9.66 14.67,-11.25 z"
       id="path39"
       style="opacity:1;fill:#007cc2"
       inkscape:connector-curvature="0" />
    <path
       d="m 383.53,447 c 4.72,1.7 8.06,5.51 11.9,8.54 46.62,37.96 98.03,70.04 152.66,95.16 0.47,0.23 0.96,0.48 1.46,0.73 -0.96,1.71 -1.18,3.66 -1.12,5.6 0.16,16.66 -0.01,33.32 0.08,49.98 0.64,7.95 1.41,16.14 4.83,23.46 1.81,4.06 4.84,7.38 7.68,10.75 1.58,0.47 3.17,0.95 4.78,1.44 -0.53,0.2 -1.05,0.41 -1.56,0.63 8.27,2.75 17.9,4.18 25.75,-0.59 7.79,-3.46 12.78,-11.01 15,-19.02 3.26,-8.49 2.48,-17.7 2.59,-26.6 0.02,-7.4 -0.1,-14.79 0.11,-22.18 8.85,2.41 17.46,5.64 26.28,8.18 44.9,13.44 91.43,21.8 138.33,23.05 0.13,4.63 0.07,9.27 -0.14,13.9 0.01,5.72 -1.47,11.27 -2.37,16.89 -4,19.34 -11.32,38.13 -22.44,54.51 -7.39,9.65 -14.36,19.92 -24.08,27.44 -4.14,3.3 -7.83,7.15 -12.18,10.2 -2.74,1.86 -5.36,3.89 -7.9,6.02 -5.76,3.12 -11.18,6.88 -17.3,9.29 -7.12,4.26 -15.05,6.88 -22.55,10.36 -14.3,4.17 -28.64,8.35 -43.34,10.8 -5.38,0.4 -10.73,1.08 -16.06,1.92 -18.98,1.4 -38.06,1.24 -57.03,-0.19 -11.01,-1.99 -22.17,-3.1 -33.02,-5.92 -7.35,-1.48 -14.13,-5.04 -21.6,-5.97 0.47,-0.26 0.95,-0.5 1.44,-0.73 -3.64,-0.38 -7.05,-1.65 -10.2,-3.46 -7.75,-3.01 -15.21,-6.67 -22.68,-10.28 -3.8,-2.93 -7.82,-5.58 -12.06,-7.81 -15.19,-11.26 -29.02,-24.54 -39.84,-40.1 -2.78,-4.59 -6.11,-8.88 -7.89,-14 -0.82,-1.33 -1.45,-2.75 -2,-4.19 -3.04,-4.32 -4.9,-9.4 -5.74,-14.58 -0.22,0.52 -0.42,1.06 -0.62,1.61 -2,-7.32 -4.18,-14.59 -5.83,-22.01 -3.09,-10.23 -3.37,-21.04 -3.57,-31.65 0.26,-53.72 -0.21,-107.46 0.23,-161.18 z"
       id="path41"
       style="opacity:1;fill:#007cc2"
       inkscape:connector-curvature="0" />
    <path
       d="m 607.69,471.3 c 11.1,-0.07 22.2,0.04 33.31,-0.08 4.32,-0.5 8.66,-0.2 12.99,0.08 14.68,-0.15 29.36,-0.19 44.04,-0.04 4.61,-0.3 9.29,-0.96 13.88,0.04 0.17,5.16 -1.81,10.42 -5.92,13.68 -6.5,4.99 -15,6.25 -22.96,6.71 -26.34,1.04 -52,-7.94 -74.96,-20.18 l -0.38,-0.21 z"
       id="path43"
       style="opacity:1;fill:#007cc2"
       inkscape:connector-curvature="0" />
  </g>
  <g
     id="#59b431ff"
     inkscape:export-xdpi="18.036776"
     inkscape:export-ydpi="18.036776">
    <path
       d="m 320.55,155.69 c 20.9,-3.54 42.18,-3.87 63.32,-3.53 l -0.01,0.18 c -0.01,5.59 -1.57,11.05 -1.35,16.65 0.05,92.02 -0.11,184.04 0.09,276.05 -30.25,-25.51 -58.13,-53.82 -83.44,-84.22 -16.32,-19.76 -31.43,-40.63 -43.72,-63.15 -11.31,-21.44 -20.7,-44.99 -19.94,-69.64 0.36,-16.98 7.67,-33.73 20.37,-45.1 17.65,-16.22 41.55,-23.27 64.68,-27.24 z"
       id="path46"
       style="opacity:1;fill:#59b431"
       inkscape:connector-curvature="0" />
    <path
       d="m 548.22,289.96 c 0.2,-35.49 -0.14,-70.99 0.17,-106.49 14.76,4.73 29.11,10.65 43.36,16.72 5.33,2.19 10.37,5.07 15.95,6.65 0,0.26 0.01,0.77 0.02,1.03 0.21,18.84 -0.2,37.68 0.2,56.51 29,0.13 58,-0.02 87.01,0.08 3.13,0 6.27,-0.09 9.4,-0.28 0.69,0.45 1.39,0.91 2.1,1.37 26.26,18.67 50.87,39.64 73.79,62.28 -59.72,0.61 -119.46,0.17 -179.19,0.52 -2.05,-0.14 -4.59,0.42 -6.05,-1.43 -13.78,-14.18 -29.48,-26.46 -46.45,-36.6 l -0.31,-0.36 z"
       id="path48"
       style="opacity:1;fill:#59b431"
       inkscape:connector-curvature="0" />
    <path
       d="m 691.04,427.52 c 57.65,-0.16 115.3,-0.15 172.94,-0.25 3.47,0.08 6.98,-0.33 10.43,0.24 16.22,20.88 31.57,42.85 41.65,67.44 6.4,15.76 10.51,33.11 7.56,50.13 -2.08,11.69 -8.35,22.42 -17.21,30.28 -10.84,9.87 -24.43,16.15 -38.32,20.47 -17.49,5.52 -35.77,7.99 -53.99,9.54 -13.57,0.75 -27.21,1.64 -40.78,0.73 0.56,-18.7 0.12,-37.43 0.27,-56.14 -0.07,-26.5 0.11,-53 -0.1,-79.5 -20.51,0.09 -41.03,0.15 -61.54,-0.01 -1.74,-16.29 -11.73,-29.95 -20.91,-42.93 z"
       id="path50"
       style="opacity:1;fill:#59b431"
       inkscape:connector-curvature="0" />
    <path
       d="m 548.37,430.17 c 18.61,15.29 38.07,29.69 59.32,41.13 l 0.38,0.21 c -0.78,34.44 0.03,68.93 -0.38,103.39 -19.74,-6.9 -39.26,-14.5 -58.14,-23.47 -0.5,-0.25 -0.99,-0.5 -1.46,-0.73 0.49,-40.17 -0.06,-80.35 0.28,-120.53 z"
       id="path52"
       style="opacity:1;fill:#59b431"
       inkscape:connector-curvature="0" />
  </g>
  <g
     id="#65afe0ff"
     inkscape:export-xdpi="18.036776"
     inkscape:export-ydpi="18.036776">
    <path
       d="m 383.86,152.34 c 5.42,0.4 10.85,0.08 16.27,0.46 5.57,0.98 11.22,1.25 16.85,1.72 35.54,3.37 70.68,10.54 104.93,20.56 8.8,2.38 17.31,5.72 26.1,8.15 0.99,-9.07 -0.82,-18.29 0.93,-27.26 -0.98,9.13 -0.2,18.34 -0.55,27.5 -0.31,35.5 0.03,71 -0.17,106.49 -18.39,-10.41 -38.02,-19.52 -59.18,-22.23 -10.76,-1.15 -21.84,-1.73 -32.42,0.99 -6.1,1.59 -12.12,5.24 -14.67,11.25 -3.26,7.33 -1.09,15.58 1.22,22.85 6.03,16.31 16.34,30.52 26.64,44.36 23.57,29.97 49.46,58.29 78.56,82.99 -0.34,40.18 0.21,80.36 -0.28,120.53 -54.63,-25.12 -106.04,-57.2 -152.66,-95.16 -3.84,-3.03 -7.18,-6.84 -11.9,-8.54 -0.44,53.72 0.03,107.46 -0.23,161.18 -0.34,-2.06 -0.62,-4.12 -0.62,-6.2 -0.09,-52.31 0.07,-104.62 -0.08,-156.94 -0.2,-92.01 -0.04,-184.03 -0.09,-276.05 -0.22,-5.6 1.34,-11.06 1.35,-16.65 z"
       id="path55"
       style="opacity:1;fill:#65afe0"
       inkscape:connector-curvature="0" />
    <path
       d="m 607.72,207.87 c 14.95,6.34 29.14,14.32 43.34,22.16 18.29,10.53 36.12,21.84 53.27,34.15 -3.13,0.19 -6.27,0.28 -9.4,0.28 -29.01,-0.1 -58.01,0.05 -87.01,-0.08 -0.4,-18.83 0.01,-37.67 -0.2,-56.51 z"
       id="path57"
       style="opacity:1;fill:#65afe0"
       inkscape:connector-curvature="0" />
    <path
       d="m 711.95,470.45 c 20.51,0.16 41.03,0.1 61.54,0.01 0.21,26.5 0.03,53 0.1,79.5 -0.15,18.71 0.29,37.44 -0.27,56.14 -0.81,4.6 -0.65,9.29 -1.16,13.93 0.21,-4.63 0.27,-9.27 0.14,-13.9 -46.9,-1.25 -93.43,-9.61 -138.33,-23.05 -8.82,-2.54 -17.43,-5.77 -26.28,-8.18 0.41,-34.46 -0.4,-68.95 0.38,-103.39 22.96,12.24 48.62,21.22 74.96,20.18 7.96,-0.46 16.46,-1.72 22.96,-6.71 4.11,-3.26 6.09,-8.52 5.92,-13.68 l 0.04,-0.85 z"
       id="path59"
       style="opacity:1;fill:#65afe0"
       inkscape:connector-curvature="0" />
  </g>
</svg>
